<?xml version="1.0" encoding="utf-8"?>
<!-- Generator: Adobe Illustrator 17.0.0, SVG Export Plug-In . SVG Version: 6.00 Build 0)  -->
<!DOCTYPE svg PUBLIC "-//W3C//DTD SVG 1.1//EN" "http://www.w3.org/Graphics/SVG/1.1/DTD/svg11.dtd">
<svg version="1.1" id="Capa_1" xmlns="http://www.w3.org/2000/svg" xmlns:xlink="http://www.w3.org/1999/xlink" x="0px" y="0px"
	 width="64px" height="64px" viewBox="0 0 64 64" enable-background="new 0 0 64 64" xml:space="preserve">
<path d="M32.704,17.199c-0.553,0-1,0.448-1,1v12.76c0,0.552,0.447,1,1,1h10.679c0.553,0,1-0.448,1-1V23.39
	c0-3.413-2.777-6.191-6.19-6.191H32.704z M42.383,23.39v6.569h-8.679v-10.76h4.488C40.503,19.199,42.383,21.079,42.383,23.39z"/>
<path d="M27.784,17.199h-5.488c-3.413,0-6.19,2.777-6.19,6.191v7.569c0,0.552,0.447,1,1,1h10.679c0.553,0,1-0.448,1-1v-12.76
	C28.784,17.646,28.337,17.199,27.784,17.199z M26.784,29.959h-8.679V23.39c0-2.311,1.88-4.191,4.19-4.191h4.488V29.959z"/>
<path d="M16.105,47.108c0,7.324,6.524,13.283,14.545,13.283c8.02,0,14.544-5.959,14.544-13.283V34.825c0-0.552-0.447-1-1-1h-11.49
	c-0.553,0-1,0.448-1,1c0,0.552,0.447,1,1,1h10.49v11.283c0,6.222-5.627,11.283-12.544,11.283S18.105,53.33,18.105,47.108V35.825
	h9.679c0.553,0,1-0.448,1-1c0-0.552-0.447-1-1-1H17.105c-0.553,0-1,0.448-1,1V47.108z"/>
<path d="M27.784,39.015c0,0.552,0.447,1,1,1h2.92c0.553,0,1-0.448,1-1c0-0.552-0.447-1-1-1h-2.92
	C28.231,38.015,27.784,38.463,27.784,39.015z"/>
<path d="M36.911,8.283c-5.46,0-7.399,4.848-7.662,7.412c-0.056,0.548,0.343,1.038,0.891,1.095c0.035,0.004,0.07,0.005,0.106,0.005
	c0.505,0,0.938-0.381,0.993-0.894c0.025-0.229,0.665-5.618,5.673-5.618c2.186,0,3.829-0.642,4.886-1.908
	c1.596-1.912,1.149-4.496,1.13-4.605c-0.099-0.542-0.615-0.897-1.158-0.804c-0.542,0.096-0.904,0.614-0.811,1.156
	c0.003,0.018,0.294,1.796-0.705,2.981C39.594,7.886,38.469,8.283,36.911,8.283z"/>
</svg>
