<?xml version="1.0" encoding="utf-8"?>
<!-- Generator: Adobe Illustrator 17.0.0, SVG Export Plug-In . SVG Version: 6.00 Build 0)  -->
<!DOCTYPE svg PUBLIC "-//W3C//DTD SVG 1.1//EN" "http://www.w3.org/Graphics/SVG/1.1/DTD/svg11.dtd">
<svg version="1.1" id="Capa_1" xmlns="http://www.w3.org/2000/svg" xmlns:xlink="http://www.w3.org/1999/xlink" x="0px" y="0px"
	 width="64px" height="64px" viewBox="0 0 64 64" enable-background="new 0 0 64 64" xml:space="preserve">
<path d="M49.798,22.866c-0.121-0.024-0.26-0.038-0.418-0.038c-0.001,0-0.003,0-0.004,0c-0.049-0.003-0.097-0.011-0.144-0.018
	c-0.286-0.041-0.58-0.041-0.87,0c-0.047,0.007-0.094,0.015-0.081,0.016H17.242c-0.065,0-0.129,0.007-0.19,0.021l-0.011-0.002
	c-0.276-0.037-0.554-0.072-0.842-0.072c-6.29,0-11.408,5.118-11.408,11.41c0,2.74,1.004,5.386,2.834,7.482l0.891,4.811
	c0.493,2.665,3.002,4.752,5.712,4.752h0.874c2.615,0,5.461-1.886,6.48-4.294c0.215-0.509-0.023-1.096-0.531-1.31
	c-0.507-0.216-1.096,0.022-1.31,0.531c-0.705,1.666-2.828,3.073-4.638,3.073h-0.874c-1.718,0-3.433-1.427-3.745-3.115l-0.941-5.087
	c-0.034-0.185-0.12-0.356-0.247-0.494c-1.614-1.759-2.503-4.014-2.503-6.348c0-5.188,4.221-9.41,9.408-9.41
	c0.196,0,0.384,0.028,0.572,0.054c0.122,0.018,0.244,0.033,0.367,0.047c0.131,0.014,0.26-0.005,0.385-0.047l30.818-0.002
	c0.104-0.006,0.205-0.019,0.306-0.034c0.1-0.014,0.2-0.014,0.3,0c0.101,0.015,0.203,0.028,0.368,0.036c0.001,0,0.046,0,0.093,0.001
	c0.053,0.014,0.106,0.022,0.162,0.027c4.925,0.407,8.639,4.418,8.639,9.328c0,2.439-0.942,4.757-2.654,6.529
	c-0.136,0.14-0.228,0.317-0.264,0.509l-0.922,4.891c-0.318,1.688-2.039,3.115-3.758,3.115h-0.875c-1.809,0-3.933-1.407-4.637-3.074
	c-0.215-0.508-0.803-0.746-1.311-0.531c-0.509,0.215-0.746,0.802-0.531,1.31c1.018,2.408,3.864,4.295,6.479,4.295h0.875
	c2.709,0,5.223-2.085,5.723-4.745l0.868-4.603c1.942-2.117,3.007-4.838,3.007-7.696C60.209,28.244,55.737,23.39,49.798,22.866z"/>
<path d="M22.352,43.546h20.137c0.553,0,1-0.447,1-1s-0.447-1-1-1H22.352c-0.553,0-1,0.447-1,1S21.799,43.546,22.352,43.546z"/>
<path d="M14.686,40.475h3.672c0.553,0,1-0.447,1-1v-2.245H21.6c0.553,0,1-0.447,1-1v-3.667c0-0.553-0.447-1-1-1h-2.241v-2.243
	c0-0.553-0.447-1-1-1h-3.672c-0.553,0-1,0.447-1,1v2.243h-2.241c-0.553,0-1,0.447-1,1v3.667c0,0.553,0.447,1,1,1h2.241v2.245
	C13.686,40.027,14.134,40.475,14.686,40.475z M12.445,35.229v-1.667h2.241c0.553,0,1-0.447,1-1v-2.243h1.672v2.243
	c0,0.553,0.447,1,1,1H20.6v1.667h-2.241c-0.553,0-1,0.447-1,1v2.245h-1.672v-2.245c0-0.553-0.447-1-1-1H12.445z"/>
<path d="M46.898,27.433c-1.585,0-2.875,1.291-2.875,2.878c0,1.587,1.29,2.878,2.875,2.878c1.587,0,2.878-1.291,2.878-2.878
	C49.776,28.724,48.485,27.433,46.898,27.433z M46.898,31.188c-0.482,0-0.875-0.394-0.875-0.878c0-0.484,0.393-0.878,0.875-0.878
	c0.484,0,0.878,0.394,0.878,0.878C47.776,30.795,47.383,31.188,46.898,31.188z"/>
<path d="M46.898,34.858c-1.585,0-2.875,1.291-2.875,2.877c0,1.586,1.29,2.877,2.875,2.877c1.587,0,2.878-1.291,2.878-2.877
	C49.776,36.149,48.485,34.858,46.898,34.858z M46.898,38.612c-0.482,0-0.875-0.394-0.875-0.877c0-0.483,0.393-0.877,0.875-0.877
	c0.484,0,0.878,0.394,0.878,0.877C47.776,38.219,47.383,38.612,46.898,38.612z"/>
<path d="M41.823,31.146c-1.588,0-2.879,1.291-2.879,2.877c0,1.587,1.291,2.878,2.879,2.878c1.585,0,2.875-1.291,2.875-2.878
	C44.698,32.437,43.408,31.146,41.823,31.146z M41.823,34.9c-0.484,0-0.879-0.394-0.879-0.878c0-0.483,0.395-0.877,0.879-0.877
	c0.483,0,0.875,0.394,0.875,0.877C42.698,34.507,42.306,34.9,41.823,34.9z"/>
<path d="M51.978,36.9c1.585,0,2.875-1.291,2.875-2.878c0-1.586-1.29-2.877-2.875-2.877c-1.588,0-2.88,1.291-2.88,2.877
	C49.099,35.609,50.391,36.9,51.978,36.9z M51.978,33.146c0.482,0,0.875,0.394,0.875,0.877c0,0.484-0.393,0.878-0.875,0.878
	c-0.485,0-0.88-0.394-0.88-0.878C51.099,33.539,51.493,33.146,51.978,33.146z"/>
<path d="M31.895,21.507c0.035,0.004,0.07,0.006,0.106,0.006c0.505,0,0.938-0.382,0.993-0.894C33.019,20.389,33.659,15,38.667,15
	c2.185,0,3.829-0.642,4.886-1.907c1.596-1.913,1.149-4.496,1.13-4.606c-0.099-0.542-0.619-0.901-1.158-0.804
	c-0.542,0.096-0.904,0.614-0.811,1.156c0.003,0.018,0.294,1.797-0.705,2.981C41.35,12.604,40.225,13,38.667,13
	c-5.46,0-7.399,4.849-7.662,7.412C30.949,20.96,31.348,21.449,31.895,21.507z"/>
</svg>
